  <svg xmlns="http://www.w3.org/2000/svg" xmlns:xlink="http://www.w3.org/1999/xlink" display="none">
    
    <symbol id="search" viewBox="0 0 55 55">
      <g>
          <path d="M33.9286 24.9286C33.9286 29.8906 29.8906 33.9286 24.9286 33.9286C19.9665 33.9286 15.9286 29.8906 15.9286 24.9286C15.9286 19.9665 19.9665 15.9286 24.9286 15.9286C29.8906 15.9286 33.9286 19.9665 33.9286 24.9286ZM44.2143 41.6429C44.2143 40.9598 43.933 40.2969 43.471 39.8348L36.5803 32.9442C38.2076 30.5937 39.0714 27.7812 39.0714 24.9286C39.0714 17.1138 32.7433 10.7857 24.9286 10.7857C17.1138 10.7857 10.7857 17.1138 10.7857 24.9286C10.7857 32.7433 17.1138 39.0714 24.9286 39.0714C27.7812 39.0714 30.5937 38.2076 32.9442 36.5803L39.8348 43.4509C40.2969 43.933 40.9598 44.2143 41.6429 44.2143C43.0491 44.2143 44.2143 43.0491 44.2143 41.6429Z"/>
      </g>
    </symbol>

    <symbol id="percent" viewBox="0 0 31 32">
      <g>
        <path xmlns="http://www.w3.org/2000/svg" d="M25.7857 23.9643C25.7857 25.3705 24.6205 26.5357 23.2143 26.5357C21.808 26.5357 20.6429 25.3705 20.6429 23.9643C20.6429 22.558 21.808 21.3928 23.2143 21.3928C24.6205 21.3928 25.7857 22.558 25.7857 23.9643ZM10.3571 8.5357C10.3571 9.94195 9.19196 11.1071 7.78571 11.1071C6.37946 11.1071 5.21428 9.94195 5.21428 8.5357C5.21428 7.12945 6.37946 5.96427 7.78571 5.96427C9.19196 5.96427 10.3571 7.12945 10.3571 8.5357ZM30.9286 23.9643C30.9286 19.7053 27.4732 16.25 23.2143 16.25C18.9554 16.25 15.5 19.7053 15.5 23.9643C15.5 28.2232 18.9554 31.6786 23.2143 31.6786C27.4732 31.6786 30.9286 28.2232 30.9286 23.9643ZM29 2.10713C29 1.404 28.4174 0.821411 27.7143 0.821411H24.5C24.0982 0.821411 23.7165 1.0223 23.4754 1.34373L2.26116 29.6294C2.10044 29.8504 2 30.1116 2 30.3928C2 31.096 2.58259 31.6786 3.28571 31.6786H6.5C6.90178 31.6786 7.28348 31.4777 7.52455 31.1562L28.7388 2.87052C28.8996 2.64954 29 2.38838 29 2.10713ZM15.5 8.5357C15.5 4.27677 12.0446 0.821411 7.78571 0.821411C3.52678 0.821411 0.0714264 4.27677 0.0714264 8.5357C0.0714264 12.7946 3.52678 16.25 7.78571 16.25C12.0446 16.25 15.5 12.7946 15.5 8.5357Z" />
      </g>
    </symbol>

    <symbol id="file" viewBox="0 0 40 43">
      <g>
        <path d="M15.9932 23.3724V22.0867C15.9932 21.7251 16.2745 21.4439 16.6361 21.4439H30.7789C31.1405 21.4439 31.4218 21.7251 31.4218 22.0867V23.3724C31.4218 23.734 31.1405 24.0153 30.7789 24.0153H16.6361C16.2745 24.0153 15.9932 23.734 15.9932 23.3724Z"/>
        <path d="M16.6361 26.5867H30.7789C31.1405 26.5867 31.4218 26.868 31.4218 27.2296V28.5153C31.4218 28.8769 31.1405 29.1581 30.7789 29.1581H16.6361C16.2745 29.1581 15.9932 28.8769 15.9932 28.5153V27.2296C15.9932 26.868 16.2745 26.5867 16.6361 26.5867Z"/>
        <path d="M16.6361 31.7296H30.7789C31.1405 31.7296 31.4218 32.0108 31.4218 32.3724V33.6581C31.4218 34.0198 31.1405 34.301 30.7789 34.301H16.6361C16.2745 34.301 15.9932 34.0198 15.9932 33.6581V32.3724C15.9932 32.0108 16.2745 31.7296 16.6361 31.7296Z" />
        <path fill-rule="evenodd" clip-rule="evenodd" d="M8.27892 15.3148C4.18373 15.3148 0.863922 11.995 0.863922 7.8998C0.863922 3.80461 4.18373 0.484802 8.27892 0.484802C11.7229 0.484802 14.6185 2.83277 15.4523 6.01529H28.2075C29.2722 6.01529 30.7588 6.63806 31.5021 7.38136L37.77 13.6492C38.5133 14.3925 39.1361 15.8791 39.1361 16.9439V40.0867C39.1361 41.1515 38.2722 42.0153 37.2075 42.0153H10.2075C9.14276 42.0153 8.27892 41.1515 8.27892 40.0867L8.27892 15.3148ZM10.8504 14.8568C13.4729 13.8871 15.397 11.477 15.6625 8.58672H26.2789V16.9439C26.2789 18.0086 27.1428 18.8724 28.2075 18.8724H36.5646V39.4439H10.8504V14.8568ZM29.674 9.1894C29.5334 9.04877 29.1919 8.86797 28.8504 8.74743V16.301H36.4039C36.2834 15.9595 36.1026 15.618 35.962 15.4773L29.674 9.1894ZM9.27892 8.89984H13.2789V6.89984H9.27892V2.89984H7.27892V6.89984H3.27892V8.89984H7.27892V12.8998H9.27892V8.89984Z" />
      </g>
    </symbol>

    <symbol id="money" viewBox="0 0 39 27">
      <g>
        <path d="M15.7287 18.5357V16.6071H18.3002V10.8214H18.26C17.9386 11.3237 17.6372 11.5446 17.1551 11.9665L15.6082 10.3594L18.5814 7.60713H20.8716V16.6071H23.443V18.5357H15.7287ZM26.0145 13.3928C26.0145 9.7366 23.8046 5.03571 19.5859 5.03571C15.3671 5.03571 13.1573 9.7366 13.1573 13.3928C13.1573 17.0491 15.3671 21.75 19.5859 21.75C23.8046 21.75 26.0145 17.0491 26.0145 13.3928ZM36.3002 18.5357C33.4676 18.5357 31.1573 20.846 31.1573 23.6786H8.01446C8.01446 20.846 5.70419 18.5357 2.8716 18.5357V8.24999C5.70419 8.24999 8.01446 5.93972 8.01446 3.10713H31.1573C31.1573 5.93972 33.4676 8.24999 36.3002 8.24999V18.5357ZM38.8716 1.82142C38.8716 1.11829 38.289 0.535706 37.5859 0.535706H1.58589C0.88276 0.535706 0.300171 1.11829 0.300171 1.82142V24.9643C0.300171 25.6674 0.88276 26.25 1.58589 26.25H37.5859C38.289 26.25 38.8716 25.6674 38.8716 24.9643V1.82142Z"/>
      </g>
    </symbol>


    <symbol id="qiwi"  viewBox="0 0 21 20">
      <g>
        <path d="M16.9118 13.4559C16.9719 13.8435 16.845 14.0076 16.7167 14.0076C16.5885 14.0076 16.4028 13.85 16.1957 13.5373C15.9887 13.2245 15.9179 12.8769 16.0181 12.6986C16.0558 12.6368 16.1167 12.5915 16.1881 12.572C16.2595 12.5525 16.3359 12.5604 16.4015 12.5939C16.7421 12.718 16.8757 13.2233 16.9118 13.4559ZM15.0241 14.3061C15.4343 14.6408 15.5585 15.0389 15.3421 15.3193C15.2762 15.3977 15.1922 15.46 15.0968 15.5013C15.0014 15.5426 14.8974 15.5617 14.793 15.557C14.5642 15.5574 14.3425 15.4801 14.1665 15.3386C13.7951 15.0246 13.6856 14.5142 13.9287 14.2247C13.9824 14.1653 14.0494 14.1186 14.1247 14.0881C14.2 14.0577 14.2814 14.0443 14.3629 14.049C14.6077 14.0569 14.8418 14.1479 15.0241 14.3061V14.3061ZM14.3402 17.5367C16.1022 17.5367 18.0139 18.1208 20.1313 19.9351C20.3424 20.1161 20.6243 19.8912 20.4399 19.6651C18.3599 17.1258 16.4322 16.6412 14.5178 16.2329C12.172 15.7315 10.9643 14.4535 10.1187 13.0514C9.95167 12.7723 9.87552 12.8214 9.86083 13.1806C9.84679 13.7131 9.88841 14.2456 9.98507 14.7701V14.7701C9.89022 14.7701 9.79403 14.7701 9.69918 14.7701C8.49698 14.7701 7.32179 14.4252 6.32219 13.7792C5.3226 13.1331 4.54352 12.2148 4.08346 11.1404C3.6234 10.0661 3.50302 8.88385 3.73756 7.7433C3.9721 6.60275 4.55101 5.55509 5.40109 4.7328C6.25117 3.91051 7.33424 3.35053 8.51334 3.12366C9.69244 2.89679 10.9146 3.01322 12.0253 3.45824C13.136 3.90326 14.0853 4.65688 14.7532 5.62379C15.4211 6.5907 15.7776 7.72748 15.7776 8.89037C15.7782 9.11877 15.7653 9.347 15.7389 9.57397C15.0985 9.49597 14.4514 9.48427 13.8085 9.53908C13.5773 9.55846 13.6107 9.6683 13.7844 9.69285C15.7883 10.0431 17.175 11.2435 17.4902 13.4339C17.4914 13.445 17.4961 13.4555 17.5037 13.4638C17.5114 13.4722 17.5215 13.478 17.5328 13.4804C17.544 13.4828 17.5558 13.4818 17.5664 13.4774C17.577 13.473 17.5859 13.4654 17.5918 13.4559C18.6342 11.7703 19.0706 9.79838 18.8329 7.84774C18.5952 5.89709 17.6968 4.07738 16.2778 2.67245C14.8588 1.26752 12.999 0.356356 10.9885 0.0810911C8.97799 -0.194174 6.92984 0.181935 5.1635 1.15075C3.39717 2.11957 2.01197 3.62662 1.22396 5.43683C0.435958 7.24704 0.289461 9.25863 0.807322 11.1578C1.32518 13.057 2.47828 14.737 4.08676 15.9358C5.69524 17.1346 7.66865 17.7848 9.69918 17.7849C11.0418 17.7887 12.379 17.5355 14.3402 17.5355V17.5367Z"/>
      </g>
    </symbol>

    <symbol id="yandexMoney" viewBox="0 0 15 18">
      <g>
        <path fill-rule="evenodd" clip-rule="evenodd" d="M0.779835 8.9307C0.779835 7.94664 0.863032 7.32213 2.91811 5.80087C4.61949 4.54138 10.073 0.237427 10.073 0.237427V7.42209H14.2203V17.7627H2.07518C1.36275 17.7627 0.779633 17.1844 0.779633 16.4778L0.779835 8.93076V8.9307Z" fill="#3E9CDC"/>
        <path fill-rule="evenodd" clip-rule="evenodd" d="M10.073 7.422V11.585L2.45212 16.7335L12.0874 13.6246V7.422H10.073Z" fill="black" fill-opacity="0.2"/>
        <path fill-rule="evenodd" clip-rule="evenodd" d="M6.5904 7.20685C7.03609 6.68023 7.68696 6.49436 8.04435 6.79173C8.40174 7.08915 8.3303 7.75719 7.8846 8.2838C7.43925 8.81035 6.78811 8.99602 6.43072 8.69859C6.07333 8.40123 6.14497 7.73333 6.5904 7.20678V7.20685Z" fill="#231F20"/>
      </g>
    </symbol>

    <symbol id="webMoney"  viewBox="0 0 21 20">
      <g clip-path="url(#clip0_4_184)">
        <path d="M9.34077 0C10.751 0 12.0928 0.323103 13.2969 0.901077C13.4857 0.986269 13.6758 1.08823 13.864 1.19028L13.0384 1.92159L11.8007 0.646297L9.66802 2.51651L8.41214 1.17307L4.49048 4.65889L7.00126 7.39646L6.02108 8.24641L8.49822 10.984L7.51795 11.8336L11.0613 15.7274L13.1585 13.823L14.9826 15.8639C14.6211 16.136 14.2255 16.4086 13.796 16.6462C12.4886 17.3773 10.9747 17.8016 9.35814 17.8016C4.38691 17.8016 0.345546 13.8066 0.345546 8.89314C0.327991 4.01286 4.37007 0 9.34077 0ZM7.68931 8.34864L9.83937 6.44418L11.7662 8.56952L9.61567 10.4738L7.68931 8.34864ZM9.22053 12.0214L11.3531 10.1001L13.2969 12.2253L11.1467 14.1298L9.22053 12.0214ZM6.15942 4.72713L8.30886 2.82267L10.2352 4.948L8.08507 6.85238L6.15942 4.72713ZM10.0974 3.70661L11.6971 2.27842L13.1423 3.85978L11.5426 5.30484L10.0974 3.70661ZM12.9529 10.2528L14.5521 8.82456L15.9972 10.4224L14.3974 11.8516L12.9529 10.2528ZM14.3631 13.4668L15.9629 12.0382L17.4068 13.6195L15.8076 15.0644L14.3631 13.4668ZM15.0168 6.12107L16.0831 5.16879L17.0459 6.22339L15.9799 7.17531L15.0168 6.12107ZM13.6408 2.97548L14.7071 2.00651L15.6707 3.07753L14.6036 4.02972L13.6408 2.97548ZM16.3755 9.26693L17.4417 8.31474L18.422 9.36899L17.3389 10.3209L16.3755 9.26693ZM11.5768 6.90341L13.1766 5.47513L14.6211 7.05614L13.022 8.48469L11.5768 6.90341Z" fill="#3E9CDC"/>
      </g>
    </symbol>

    <symbol id="email"  viewBox="0 0 37 29">
      <g>
          <path d="M33.7952 25.1071C33.7952 25.4487 33.4938 25.75 33.1523 25.75H3.58086C3.23935 25.75 2.93801 25.4487 2.93801 25.1071V9.67856C3.35988 10.1607 3.82193 10.6027 4.32417 11.0045C7.19693 13.2143 10.0898 15.4643 12.8822 17.7946C14.3889 19.0603 16.2572 20.6071 18.3465 20.6071H18.3666H18.3867C20.476 20.6071 22.3443 19.0603 23.851 17.7946C26.6434 15.4643 29.5362 13.2143 32.409 11.0045C32.9112 10.6027 33.3733 10.1607 33.7952 9.67856V25.1071ZM33.7952 3.99329C33.7952 5.70088 32.1478 7.93079 30.842 8.95535C28.1501 11.0647 25.4581 13.1942 22.7862 15.3237C21.7215 16.1875 19.7929 18.0357 18.3867 18.0357H18.3666H18.3465C16.9402 18.0357 15.0117 16.1875 13.9469 15.3237C11.2751 13.1942 8.5831 11.0647 5.89113 8.95535C4.08309 7.52901 2.93801 5.54017 2.93801 3.24999C2.93801 2.90847 3.23935 2.60713 3.58086 2.60713H33.1523C33.9157 2.60713 33.7952 3.49106 33.7952 3.99329ZM36.3666 3.24999C36.3666 1.48213 34.9202 0.0357056 33.1523 0.0357056H3.58086C1.81301 0.0357056 0.366577 1.48213 0.366577 3.24999V25.1071C0.366577 26.875 1.81301 28.3214 3.58086 28.3214H33.1523C34.9202 28.3214 36.3666 26.875 36.3666 25.1071V3.24999Z"/>
      </g>
    </symbol>

    <symbol id="vk" viewBox="0 0 21 20">
      <g>
        <path d="M15.1804 12.2863C15.1804 12.9366 15.0574 13.5079 14.8113 14.0001C14.5652 14.4923 14.2341 14.8995 13.8181 15.2218C13.3259 15.6085 12.7839 15.8839 12.1921 16.048C11.6062 16.212 10.8591 16.2941 9.95093 16.2941H4.71265V3.20715H9.33569C10.2966 3.20715 11.0232 3.24524 11.5154 3.32141C12.0134 3.39172 12.4792 3.54407 12.9128 3.77844C13.3816 4.0304 13.7302 4.36731 13.9587 4.78918C14.1931 5.21106 14.3103 5.69739 14.3103 6.24817C14.3103 6.88684 14.1492 7.4552 13.8269 7.95325C13.5105 8.45129 13.071 8.8175 12.5085 9.05188V9.12219C13.3171 9.29211 13.9646 9.64075 14.4509 10.1681C14.9373 10.6896 15.1804 11.3956 15.1804 12.2863ZM10.9705 6.90735C10.9705 6.69641 10.9148 6.47961 10.8035 6.25696C10.698 6.0343 10.531 5.87317 10.3025 5.77356C10.0857 5.67981 9.82788 5.63 9.52905 5.62415C9.23608 5.61243 8.79663 5.60657 8.21069 5.60657H7.98218V8.37512H8.39526C8.95776 8.37512 9.35034 8.36926 9.573 8.35754C9.80151 8.34583 10.0359 8.2843 10.2761 8.17297C10.5398 8.04993 10.7214 7.88 10.821 7.66321C10.9207 7.44641 10.9705 7.19446 10.9705 6.90735ZM11.7966 12.2247C11.7966 11.8204 11.7146 11.504 11.5505 11.2755C11.3865 11.047 11.1404 10.8741 10.8123 10.757C10.613 10.6808 10.3376 10.6398 9.98608 10.6339C9.64038 10.6222 9.17456 10.6163 8.58862 10.6163H7.98218V13.8947H8.15796C9.01343 13.8947 9.60522 13.8888 9.93335 13.8771C10.2615 13.8654 10.5955 13.7863 10.9353 13.6398C11.2341 13.5109 11.4509 13.3234 11.5857 13.0773C11.7263 12.8253 11.7966 12.5411 11.7966 12.2247Z"/>
      </g>
    </symbol>
  </svg>
